<svg width="110" height="132" viewBox="44 -3 110 132" fill="none" xmlns="http://www.w3.org/2000/svg">
<path fill-rule="evenodd" clip-rule="evenodd" d="M79.3171 1.18184C77.8899 2.75787 77.9784 4.8601 79.5384 6.41883C80.9996 7.87885 81.6648 7.98075 83.4646 7.01809C84.5763 6.42395 85.4377 7.01488 90.1375 11.5988C93.1055 14.4932 95.405 17.0697 95.2479 17.3241C95.008 17.7119 76.9316 14.4278 76.6712 13.9497C75.1189 11.095 74.1805 10.2644 72.5044 10.2644C69.2471 10.2644 67.4922 14.1612 69.8071 16.2538C71.3511 17.6504 73.6833 17.5997 75.328 16.1346C76.6179 14.9848 76.9085 15.0059 86.5762 16.9357L96.5012 18.9168L98.6404 22.7624C102.354 29.4376 102.819 29.7158 110.95 30.1317C118.816 30.5349 119.89 31.129 119.928 35.1002C119.94 36.2455 120.27 37.1832 120.662 37.1832C121.694 37.1832 120.753 32.8018 119.276 30.7297C118.614 29.7997 116.523 27.9737 114.63 26.6714C110.533 23.8519 108.462 20.1512 109.791 18.0253C110.825 16.3717 109.873 13.4741 108.082 12.8217C106.26 12.157 104.026 13.1613 103.175 15.0264C102.128 17.3235 103.878 19.8782 106.499 19.8782C108.132 19.8782 108.563 20.2532 109.435 22.4297C110.044 23.9506 111.308 25.5068 112.565 26.283C117.039 29.046 116.791 29.4921 110.776 29.4921C105.789 29.4921 105.113 29.3395 103.284 27.8013C102.177 26.8713 100.162 23.9032 98.804 21.2049C96.8598 17.3414 95.1779 15.2091 90.8874 11.1687C86.1003 6.65981 85.48 5.82533 85.7751 4.28327C86.4505 0.754344 81.7488 -1.50363 79.3171 1.18184ZM84.0945 1.85737C85.4108 2.92194 85.4961 3.26035 84.8206 4.74153C84.2446 6.00543 83.584 6.41883 82.1407 6.41883C79.5185 6.41883 78.4018 4.38517 79.8283 2.20988C81.0567 0.336461 82.108 0.249294 84.0945 1.85737ZM96.8572 1.70099C97.7392 1.83046 100.626 2.25026 103.272 2.63353C119.942 5.05045 134.018 17.5344 137.633 33.1082C138.358 36.2339 138.501 38.9066 138.179 43.3014L137.741 49.2575L140.026 53.3146C141.283 55.5463 143.915 59.2469 145.875 61.5382C149.619 65.917 150.118 67.4347 148.426 69.303C147.6 70.2157 147.165 70.2939 146.213 69.6998C145.281 69.1185 144.528 69.2005 142.673 70.0843C141.377 70.7015 140.471 71.3617 140.66 71.5514C140.85 71.7405 141.761 71.4008 142.684 70.7957C144.834 69.3889 145.765 70.2234 143.744 71.7462C142.487 72.6942 142.29 73.2703 142.613 75.0669C142.999 77.2172 142.96 77.2601 139.013 79.0111C136.818 79.9853 134.229 80.7781 133.259 80.7736C132.289 80.7698 131.495 81.0364 131.495 81.3678C131.495 82.2138 136.748 82.9047 139.159 82.3753C142.888 81.5568 144.485 84.7999 141.361 86.8457C139.809 87.8622 139.717 88.1705 140.155 90.9252C141.104 96.8929 140.869 98.7599 138.962 100.399C137.635 101.54 136.449 101.911 134.185 101.894C124.694 101.823 108.576 95.3623 101.455 88.7743C96.9118 84.5711 94.761 81.1518 93.2536 75.7347C92.6507 73.5671 91.938 71.793 91.6706 71.793C90.6911 71.793 89.6532 76.5378 89.9977 79.4418C90.192 81.0838 91.2491 85.0101 92.3466 88.166C93.4441 91.3226 95.0362 97.3659 95.8848 101.596C98.3095 113.682 99.9515 117.244 105.412 122.266C108.737 125.323 110.011 125.742 109.315 123.548C108.597 121.29 108.764 114.051 109.602 111.078C110.02 109.597 111.134 107.466 112.079 106.345C114.941 102.945 116.986 102.455 126.275 102.945C135.456 103.43 138.352 102.866 140.465 100.181C141.938 98.3099 142.122 95.2668 140.989 91.4886C140.251 89.0287 140.294 88.8646 142.045 87.47C143.623 86.2132 143.82 85.7036 143.496 83.7116C143.29 82.4439 143.387 81.4069 143.71 81.4069C144.85 81.4069 145.016 78.4811 144.014 76.0834C143.456 74.7502 143.185 73.3601 143.412 72.9935C143.638 72.6275 145.097 71.7821 146.654 71.1156C149.508 69.8933 150.909 67.8847 150.206 66.0247C150.006 65.4959 148.206 63.0444 146.206 60.5769C144.206 58.1093 141.739 54.6483 140.724 52.8858C138.945 49.7946 138.879 49.3742 138.861 41.0287C138.843 32.9928 138.711 32.0564 137.001 27.8898C132.709 17.4312 125.628 10.0708 115.191 5.21517C110.578 3.06872 102.948 1.27862 98.8393 1.3786C96.8675 1.42667 95.9753 1.57217 96.8572 1.70099ZM74.7584 12.4647C76.049 14.4323 75.0637 16.6736 72.9091 16.6736C70.9733 16.6736 69.9168 15.5161 69.9168 13.394C69.9168 10.5906 73.1253 9.97467 74.7584 12.4647ZM109.057 14.7752C110.027 16.5845 109.261 18.5175 107.39 18.9867C105.481 19.4655 103.913 18.3009 103.913 16.4031C103.913 13.4972 107.727 12.291 109.057 14.7752ZM58.514 18.9534C57.5941 19.5969 57.088 20.6153 57.088 21.8228C57.088 25.4491 62.4492 26.8874 64.1477 23.7161C64.7225 22.6444 65.4954 22.4419 69.0194 22.4419C73.3723 22.4419 75.0163 22.979 77.4537 25.1972C79.3671 26.9393 79.2748 27.7109 76.99 29.0594C75.2061 30.1125 74.9778 30.1163 73.4582 29.1216C70.2273 27.0059 66.1849 30.6041 67.9957 33.9843C69.5685 36.921 74.1599 36.0147 74.8367 32.6339C75.2113 30.7598 77.6866 28.8511 79.7417 28.8511C80.242 28.8511 81.43 30.0272 82.3819 31.4655C85.0971 35.5648 86.5602 35.9013 101.657 35.9013H114.836L116.107 37.9843C116.807 39.1296 117.379 39.627 117.381 39.0886C117.382 38.5496 116.934 37.4684 116.385 36.6852C115.461 35.3668 114.884 35.2604 108.646 35.2604C104.783 35.2604 101.306 34.9444 100.503 34.5201C98.0247 33.2101 93.6282 29.3459 93.7745 28.6063C94.151 26.7028 92.9028 24.3628 91.296 23.9596C88.2382 23.1931 85.9156 25.7087 86.9579 28.6569C87.5416 30.3073 87.8649 30.456 90.9323 30.4836C93.7168 30.5092 94.5917 30.8213 96.2055 32.366C97.2697 33.385 98.1401 34.4528 98.1401 34.7393C98.1401 35.0258 96.0477 35.2597 93.4897 35.2591C87.3447 35.2578 85.1715 34.1016 81.4473 28.8511C77.2959 22.9982 75.3113 21.801 69.7584 21.801C65.632 21.801 65.1663 21.6581 63.5024 19.8782C61.4659 17.7004 60.5473 17.5299 58.514 18.9534ZM63.3164 20.953C64.1445 22.2061 64.1028 22.4829 62.9078 23.677C61.2728 25.3107 60.8308 25.3241 58.9463 23.7987C57.6179 22.7239 57.5403 22.4047 58.2388 20.8729C58.8475 19.5385 59.4011 19.1982 60.709 19.3552C61.6358 19.4667 62.8097 20.1859 63.3164 20.953ZM91.7681 25.028C94.1715 26.3131 92.94 30.133 90.1221 30.133C87.3915 30.133 86.3986 27.6327 88.2972 25.5369C89.5192 24.1878 90.0503 24.1096 91.7681 25.028ZM49.4299 26.8893C47.698 28.6198 47.7615 29.8452 49.6826 31.7641C51.5377 33.6183 52.1124 33.685 54.2368 32.2942C56.7834 30.6271 60.4947 32.4019 64.9617 37.4229C66.9527 39.661 69.532 41.8709 70.6923 42.3323C71.8533 42.7944 72.9296 43.2732 73.0842 43.3963C73.4736 43.7058 67.8571 49.3607 67.1593 49.3607C66.8475 49.3607 65.4126 48.3512 63.97 47.1175C61.707 45.1825 60.8931 44.8742 58.038 44.8742C55.1297 44.8742 54.6397 44.6794 53.9976 43.2719C53.0085 41.103 49.2939 40.996 47.8237 43.0944C46.5037 44.9768 46.564 45.8952 48.1079 47.4379C49.8667 49.1953 52.2362 49.0607 53.766 47.1175C54.7737 45.8382 55.6018 45.5152 57.877 45.5152C60.1791 45.5152 61.3029 45.9644 63.7308 47.8539C66.6692 50.142 66.7103 50.2227 65.6044 51.5392C62.6705 55.0329 61.3523 55.7231 57.5691 55.7469C55.5409 55.7597 53.8808 55.4879 53.8808 55.1438C53.8808 54.7996 53.1477 54.0375 52.251 53.4504C50.9405 52.5929 50.3093 52.5256 49.0309 53.1075C47.0341 54.0164 45.9321 56.6666 46.8436 58.3682C48.1143 60.7416 52.7936 60.7473 53.5467 58.3766C53.8385 57.4575 54.75 57.1428 57.7532 56.9262L61.5871 56.6486L68.5422 49.8004L75.498 42.9515H89.7058C97.5199 42.9515 103.913 43.1835 103.913 43.4668C103.913 43.75 102.961 44.9037 101.798 46.0305L99.6828 48.0789H90.5474C79.1747 48.0789 78.736 48.2763 70.5871 57.0434C64.9919 63.0643 64.3761 63.5392 62.6249 63.1893C59.9732 62.6599 57.7295 64.2384 57.7295 66.6349C57.7295 68.8871 59.2074 70.5112 61.2574 70.5112C63.3902 70.5112 64.7853 68.8621 64.7853 66.3413C64.7853 64.4858 65.657 63.2803 71.0393 57.6882C79.7507 48.6384 79.5846 48.7198 89.396 48.7198C93.8527 48.7198 97.4987 48.9646 97.4987 49.2633C97.4987 49.9741 93.8001 51.5104 88.1696 53.1383C85.6135 53.8773 83.056 55.0803 82.2799 55.9084C81.5262 56.7134 79.1253 60.905 76.9457 65.2236C73.7436 71.5674 72.7193 73.0768 71.6102 73.0845C69.8578 73.0973 69.0188 73.6703 68.0432 75.5213C66.4229 78.5938 70.4691 81.8119 73.4762 79.843C75.1882 78.722 75.6269 75.8321 74.2876 74.4939C73.7007 73.9074 74.4499 71.8975 77.5621 65.7068C79.7815 61.2921 82.3056 57.1236 83.1709 56.4435C84.8245 55.1431 87.5949 54.0427 93.9708 52.1519C97.2575 51.1777 98.618 50.242 103.286 45.7478C108.649 40.5852 111.632 38.8675 112.578 40.3974C112.861 40.8544 111.734 42.4003 109.717 44.3224C106.32 47.5603 104.555 50.6733 104.555 53.4254C104.555 54.9085 104.349 54.979 99.2549 55.2463C85.194 55.9834 79.6167 65.4062 83.1465 82.4599C85.7052 94.8208 82.4005 105.397 72.981 114.992C71.285 116.72 70.049 118.285 70.2343 118.47C70.7398 118.975 74.1452 115.546 77.4447 111.21C83.8982 102.728 86.1003 94.1273 84.2966 84.4468C82.6 75.3418 82.4557 71.0527 83.7103 67.0662C85.7943 60.4474 91.1593 56.6525 99.4114 55.9609L103.85 55.5892L105.404 59.1034C108.121 65.2409 114.068 69.8702 119.236 69.8702C123.846 69.8702 125.319 66.0068 122.145 62.2375C120.254 59.9923 113.795 56.7191 110.007 56.0865C105.748 55.3751 105.196 55.1002 105.196 53.6856C105.196 51.2418 107.847 46.79 110.742 44.3711C115.76 40.1801 113.289 37.4991 107.329 40.6691C104.258 42.3035 104.174 42.3105 88.3312 42.3105C70.0105 42.3105 70.5031 42.4336 65.4056 36.5781C63.1548 33.992 61.1593 32.398 59.2721 31.6776C57.199 30.8867 56.1791 30.0086 55.3376 28.2884C53.9501 25.4536 51.4575 24.8633 49.4299 26.8893ZM54.2041 27.5719C56.5659 30.1798 52.6518 33.776 50.1605 31.2867C49.0264 30.1535 49.2246 27.7295 50.5133 26.9797C52.1618 26.0202 52.9071 26.14 54.2041 27.5719ZM73.6051 30.6656C74.8007 32.1481 74.5846 33.1915 72.8463 34.3298C69.811 36.3166 66.7558 32.6166 69.3992 30.1554C70.786 28.8646 72.301 29.0485 73.6051 30.6656ZM123.207 38.8406C119.814 40.0712 115.459 42.7291 115.459 43.57C115.459 43.9007 116.93 43.4091 118.728 42.4772C122.657 40.4403 126.992 40.25 130.762 41.9484C133.519 43.1912 135.344 42.9662 135.344 41.3838C135.344 38.6374 128.007 37.0998 123.207 38.8406ZM133.705 40.0904C136.189 41.967 133.878 42.3163 129.564 40.7166L125.401 39.1726L128.929 39.1598C131.061 39.1521 132.951 39.52 133.705 40.0904ZM53.4921 43.7526C54.2773 45.0056 53.5999 46.5483 51.7532 47.7122C49.4466 49.1659 46.9828 45.3985 48.8058 43.204C49.8257 41.976 52.5807 42.2984 53.4921 43.7526ZM121.232 51.2386C121.232 52.5192 129.285 54.6413 132.05 54.0888C135.471 53.4049 134.27 52.5653 129.871 52.5653C127.566 52.5653 124.68 52.1474 123.456 51.6366C122.233 51.1258 121.232 50.9463 121.232 51.2386ZM52.63 54.847C53.2234 55.5616 53.2869 56.3378 52.8533 57.5709C52.3799 58.9162 51.8302 59.295 50.3529 59.295C48.8757 59.295 48.326 58.9162 47.8526 57.5709C47.115 55.4745 48.2073 53.8472 50.3529 53.8472C51.1483 53.8472 52.1733 54.2971 52.63 54.847ZM115.548 58.8451C121.719 61.6748 124.623 65.7497 122.195 68.1756C119.008 71.3597 109.936 66.3856 106.438 59.5366C105.755 58.1984 105.196 56.9069 105.196 56.6679C105.196 55.7142 111.705 57.0832 115.548 58.8451ZM64.04 66.3093C64.269 67.4674 62.4672 69.8702 61.369 69.8702C60.2612 69.8702 58.3709 67.8097 58.3709 66.6028C58.3709 65.9722 59.0072 65.0114 59.7847 64.4673C60.9886 63.6245 61.3921 63.6065 62.5108 64.3474C63.2324 64.8255 63.9207 65.7081 64.04 66.3093ZM137.696 67.734C136.794 68.6339 137.322 71.1361 138.551 71.793C139.274 72.1801 139.834 72.2199 139.834 71.884C139.834 71.5572 139.37 71.1117 138.803 70.8944C138.07 70.6131 137.889 70.0395 138.174 68.9031C138.583 67.2758 138.458 66.9713 137.696 67.734ZM73.4473 75.0002C74.4082 76.0616 74.4839 76.5628 73.8809 77.8844C72.4685 80.9826 68.0509 79.3296 68.8835 76.0141C69.2202 74.6746 69.8873 74.1824 71.9021 73.7901C72.1118 73.7491 72.8071 74.2939 73.4473 75.0002ZM92.6058 76.9903C93.2479 80.1975 96.5789 85.4626 100.229 89.0384C104.043 92.7749 115.042 98.5913 121.713 100.399C123.918 100.997 125.722 101.684 125.722 101.927C125.722 102.17 124.295 102.232 122.551 102.064C113.107 101.158 108.376 106.084 107.989 117.224C107.887 120.18 107.692 122.709 107.556 122.846C107.419 122.982 106.086 121.769 104.594 120.151C100.897 116.144 98.3832 110.45 97.1562 103.304C96.591 100.014 95.0035 93.8042 93.6282 89.5056C91.1651 81.8081 90.7353 79.6386 90.9669 76.0814C91.1151 73.8049 92.0747 74.3369 92.6058 76.9903ZM143.923 78.7137C144.61 79.8244 143.029 80.971 140.225 81.396C136.284 81.994 135.992 81.4434 139.326 79.7001C142.288 78.151 143.424 77.9068 143.923 78.7137Z" fill="#4F9CF7"/>
</svg>
